<svg width="100" height="100" viewBox="0 0 100 100" fill="none" xmlns="http://www.w3.org/2000/svg">
<path d="M59.5125 14.5875L27.125 47.8125C26.5562 48.3961 26.2378 49.1788 26.2378 49.9938C26.2378 50.8087 26.5562 51.5914 27.125 52.175L59.5125 85.4125C59.7775 85.6847 60.0943 85.901 60.4442 86.0487C60.7942 86.1964 61.1701 86.2724 61.55 86.2724C61.9298 86.2724 62.3058 86.1964 62.6558 86.0487C63.0057 85.901 63.3225 85.6847 63.5875 85.4125C64.1326 84.8544 64.4378 84.1052 64.4378 83.325C64.4378 82.5448 64.1326 81.7956 63.5875 81.2375L33.1312 49.9938L63.5875 18.7563C64.1308 18.1984 64.4348 17.4505 64.4348 16.6719C64.4348 15.8932 64.1308 15.1453 63.5875 14.5875C63.3225 14.3154 63.0057 14.0991 62.6558 13.9514C62.3058 13.8037 61.9298 13.7276 61.55 13.7276C61.1701 13.7276 60.7942 13.8037 60.4442 13.9514C60.0943 14.0991 59.7775 14.3154 59.5125 14.5875Z" fill="white"/>
</svg>
