<svg width="40" height="40" viewBox="0 0 40 40" fill="none" xmlns="http://www.w3.org/2000/svg">
<path fill-rule="evenodd" clip-rule="evenodd" d="M11.5053 32.6918C8.69327 32.3031 3.7094 31.4687 2.95496 28.1765C2.37198 25.6388 4.53243 22.2896 5.80125 20.175C6.45282 19.089 8.03028 16.7571 8.08745 15.5111C8.13316 14.631 7.91597 13.6822 7.6988 12.8363L5.43547 3.66866C8.27034 5.01752 9.77922 5.80625 13.0713 5.89769C16.0662 5.96629 17.7465 4.85749 19.9984 3.08569C22.2617 4.85749 23.9306 5.96629 26.9256 5.89769C30.2177 5.81768 31.7265 5.02895 34.5615 3.66866L32.2981 12.8478C32.0809 13.705 31.8866 14.6424 31.9095 15.5225C31.9666 16.7457 33.5327 19.089 34.1957 20.1864C35.4645 22.2782 37.6363 25.6504 37.042 28.188C36.2875 31.4801 31.2922 32.3259 28.4917 32.7032C25.0509 33.1719 22.0789 33.9263 19.9984 36.8755C17.9181 33.9148 14.9345 33.1604 11.5053 32.6918Z" fill="#FFF100"/>
<path fill-rule="evenodd" clip-rule="evenodd" d="M11.5738 32.1773C9.02478 31.823 4.14378 31.0342 3.44649 28.0394C2.90923 25.6961 5.04682 22.3925 6.2242 20.4264C6.93292 19.2261 8.51039 16.9057 8.57897 15.5339C8.62469 14.6081 8.40751 13.6136 8.17889 12.7105L6.18991 4.59455C8.76186 5.82909 10.0536 6.33205 13.0599 6.41206C15.9747 6.48066 17.7695 5.4633 19.9985 3.74866C22.2046 5.47473 23.9879 6.48066 26.937 6.41206C29.9433 6.34348 31.2237 5.82909 33.807 4.60598L31.8066 12.7333C31.5894 13.6364 31.3608 14.6309 31.4065 15.5568C31.4637 16.9285 33.0297 19.2604 33.7613 20.4492C34.9501 22.4154 37.0877 25.7418 36.539 28.0622C35.8417 31.0571 30.9607 31.8345 28.4117 32.2002C25.5654 32.6003 21.736 33.5148 19.987 35.9953C18.2495 33.5034 14.4087 32.5774 11.5738 32.1773Z" fill="#034EA1"/>
<path fill-rule="evenodd" clip-rule="evenodd" d="M19.9984 35.1037C19.3011 34.1207 16.1806 32.3145 11.6424 31.6858C9.02477 31.3315 4.54384 30.5427 3.94944 27.948C3.4922 26.0047 5.13825 23.2841 6.67 20.7122C7.45873 19.4205 9.02477 17.0771 9.09335 15.5797C9.13907 14.5624 8.89903 13.4422 8.68184 12.6191L6.94434 5.53194C8.35034 6.19492 9.79064 6.83506 13.037 6.9265C16.7293 7.00652 18.9353 5.21187 19.9984 4.40027C21.0501 5.2233 23.2677 7.01795 26.9599 6.9265C30.2063 6.84649 31.6694 6.19492 33.064 5.53194L31.3265 12.6191C31.1093 13.465 30.8693 14.5738 30.915 15.5797C30.9835 17.0886 32.5496 19.409 33.3383 20.7122C34.8929 23.2955 36.5161 26.0047 36.0589 27.948C35.4645 30.5427 30.9835 31.3315 28.3658 31.6858C23.8163 32.3145 20.6958 34.1207 19.9984 35.1037Z" fill="#FFF100"/>
<path fill-rule="evenodd" clip-rule="evenodd" d="M23.5306 7.97815C25.3595 7.97815 26.8227 9.46417 26.8227 11.2703C26.8227 13.0992 25.3595 14.5624 23.5306 14.5624C21.7017 14.5624 20.2385 13.0992 20.2385 11.2703C20.2385 9.46417 21.7131 7.97815 23.5306 7.97815Z" fill="white"/>
<path fill-rule="evenodd" clip-rule="evenodd" d="M24.2165 8.0925C25.0166 8.26397 25.7025 8.7212 26.1712 9.36134C26.034 9.31561 25.8854 9.29276 25.7597 9.24703C25.8282 9.71569 25.7482 10.1501 25.6797 10.5387C25.9882 10.7331 26.2626 11.0417 26.4798 11.4418C26.5826 11.316 26.6969 11.1331 26.7885 10.9388C26.7999 11.0531 26.7999 11.156 26.7999 11.2703C26.7999 11.979 26.5712 12.642 26.1826 13.1792C26.1826 13.0421 26.1712 12.8821 26.1598 12.7677C25.7368 12.985 25.3024 13.0421 24.9023 13.0764C24.7994 13.4422 24.6052 13.7851 24.285 14.1052C24.445 14.1623 24.6394 14.2195 24.8452 14.2423C24.445 14.4138 23.9993 14.5167 23.5535 14.5167C23.2105 14.5167 22.8677 14.4595 22.5704 14.3566C22.6961 14.3109 22.8448 14.2538 22.9362 14.2195C22.6047 13.8765 22.4218 13.4879 22.2503 13.1221C21.8617 13.145 21.4845 13.065 21.0844 12.8478C21.0844 13.0078 21.0844 13.2135 21.1072 13.4194C20.6044 12.8478 20.2957 12.1047 20.2957 11.2817C20.3757 11.396 20.4785 11.5103 20.5471 11.5903C20.7644 11.1789 21.0729 10.8816 21.393 10.5959C21.2559 10.2415 21.2102 9.84144 21.2787 9.39564C21.1186 9.44135 20.9244 9.50994 20.7415 9.61281C21.1416 8.92696 21.7703 8.41257 22.5361 8.16109C22.4561 8.2754 22.3761 8.41257 22.3075 8.51545C22.7761 8.58404 23.1534 8.80122 23.5192 8.99554C23.8164 8.7555 24.1708 8.59546 24.6166 8.52688C24.5023 8.40114 24.365 8.25254 24.2165 8.0925ZM23.5306 7.82959C25.4281 7.82959 26.9713 9.37277 26.9713 11.2703C26.9713 13.1678 25.4281 14.711 23.5306 14.711C21.633 14.711 20.09 13.1678 20.09 11.2703C20.09 9.37277 21.633 7.82959 23.5306 7.82959Z" fill="#034EA1"/>
<path fill-rule="evenodd" clip-rule="evenodd" d="M23.5535 10.0015C23.9765 10.2415 24.4107 10.5616 24.788 10.9274C24.7309 11.4303 24.5594 11.9219 24.365 12.3791C23.8049 12.4363 23.2791 12.4363 22.7647 12.3791C22.5704 11.9562 22.4218 11.4189 22.3418 10.9274C22.6733 10.573 23.1077 10.2415 23.5535 10.0015Z" fill="#034EA1"/>
<path fill-rule="evenodd" clip-rule="evenodd" d="M20.5586 8.75549C18.0323 12.0362 20.7986 17.2258 23.7706 18.4718L20.8901 21.5352C17.8038 18.2203 17.4379 11.9562 20.5586 8.75549ZM19.747 8.97268C16.9807 12.3334 17.7122 18.7232 20.6158 21.8325L17.9409 24.6674C14.1573 19.9806 15.4032 12.8707 19.747 8.97268ZM17.6779 24.9531L14.9803 27.8222C9.66492 20.5064 13.7229 12.139 18.7296 9.50994C14.6374 13.4194 14.0658 20.5407 17.6779 24.9531Z" fill="#034EA1"/>
<path d="M12.3283 29.5483C12.3283 29.2968 12.3969 29.0911 12.5683 28.931C12.7283 28.7939 12.9342 28.7024 13.1856 28.7024H13.2313V28.5082H13.7571V28.7024H13.8029C14.0544 28.7024 14.2601 28.771 14.4201 28.931C14.5802 29.0911 14.6602 29.2854 14.6602 29.5483C14.6602 29.8112 14.5802 30.017 14.4201 30.1656C14.2601 30.3028 14.0544 30.3942 13.8029 30.3942H13.7571V30.6342H13.2313V30.3828H13.1856C12.9456 30.3828 12.7283 30.3142 12.5683 30.1656C12.3969 30.017 12.3283 29.7998 12.3283 29.5483ZM13.7571 29.0911V30.017C13.8714 30.017 13.94 29.9941 13.9973 29.937C14.0658 29.8684 14.1001 29.7427 14.1001 29.5483C14.1001 29.3654 14.0773 29.2397 13.9973 29.1597C13.94 29.114 13.86 29.0911 13.7571 29.0911ZM13.2085 30.017V29.0911C13.0942 29.0911 13.0256 29.114 12.9685 29.1597C12.8999 29.2283 12.8656 29.354 12.8656 29.5483C12.8656 29.7312 12.8885 29.857 12.9685 29.937C13.0256 29.9827 13.117 30.017 13.2085 30.017ZM15.4375 28.5196V29.434L15.9633 28.5196H16.4891L16.0205 29.2168L16.4777 30.6228H15.9519L15.6662 29.7084L15.4375 30.0398V30.6228H14.9117V28.5082H15.4375V28.5196ZM18.1009 28.8853V29.3997H18.2038C18.2838 29.3997 18.3752 29.3883 18.4325 29.3426C18.501 29.2968 18.5467 29.2283 18.5467 29.1483C18.5467 29.0683 18.5239 28.9882 18.4439 28.9539C18.3866 28.9082 18.3181 28.8967 18.2152 28.8967L18.1009 28.8853ZM17.5637 30.6228V28.5082H18.3638C18.581 28.5082 18.7525 28.5539 18.8782 28.6453C19.0154 28.7482 19.0954 28.8967 19.0954 29.1026C19.0954 29.3311 19.0269 29.5026 18.8667 29.617C18.741 29.7198 18.5582 29.777 18.3295 29.777C18.2609 29.777 18.1923 29.777 18.1352 29.7655V30.6228H17.5637ZM19.2097 29.5711C19.2097 29.2626 19.2669 29.011 19.3811 28.8167C19.5183 28.5882 19.7355 28.4739 20.0213 28.4739C20.3071 28.4739 20.5242 28.5882 20.6615 28.8167C20.7758 28.9996 20.8329 29.2626 20.8329 29.5711C20.8329 29.8798 20.7758 30.1312 20.6615 30.3142C20.5242 30.5428 20.3071 30.6571 20.0213 30.6571C19.7355 30.6571 19.5183 30.5428 19.3811 30.3142C19.2669 30.1312 19.2097 29.8913 19.2097 29.5711ZM19.7813 29.5711C19.7813 29.8112 19.7927 29.9827 19.827 30.0741C19.8727 30.1999 19.9298 30.2685 20.0441 30.2685C20.1471 30.2685 20.2157 30.1999 20.2385 30.0741C20.2614 29.9713 20.2842 29.7998 20.2842 29.5597C20.2842 29.3197 20.2728 29.1483 20.2385 29.0454C20.2157 28.9196 20.1357 28.851 20.0441 28.851C19.9413 28.851 19.8727 28.9196 19.8498 29.0454C19.8155 29.1597 19.7813 29.3311 19.7813 29.5711ZM22.0903 29.857L22.5475 29.9027C22.5475 30.1313 22.479 30.3142 22.3533 30.4628C22.2274 30.5999 22.0446 30.6799 21.816 30.6799C21.5187 30.6799 21.3016 30.5656 21.1643 30.3371C21.0501 30.1542 20.9929 29.8912 20.9929 29.5826C20.9929 29.2854 21.0501 29.0224 21.1643 28.8396C21.3016 28.5996 21.5187 28.4853 21.816 28.4853C22.056 28.4853 22.2389 28.5539 22.3761 28.7139C22.4904 28.851 22.5475 29.0454 22.5475 29.274H22.0446C22.0446 29.1711 22.0331 29.0911 21.9989 29.034C21.9531 28.931 21.896 28.8967 21.816 28.8967C21.713 28.8967 21.6445 28.9653 21.5987 29.114C21.5759 29.2168 21.553 29.3883 21.553 29.617C21.553 29.857 21.5645 30.0284 21.5987 30.1313C21.6445 30.2571 21.713 30.3142 21.8274 30.3142C21.9303 30.3142 21.9874 30.2914 22.0217 30.1999C22.0789 30.097 22.0903 29.9827 22.0903 29.857ZM22.7075 28.9196V28.5082H24.1936V28.9196H23.7249V30.6114H23.1991V28.9196H22.7075ZM24.3193 29.5711C24.3193 29.2626 24.3765 29.011 24.4907 28.8167C24.628 28.5882 24.8451 28.4739 25.131 28.4739C25.4167 28.4739 25.6338 28.5882 25.7711 28.8167C25.8854 28.9996 25.9425 29.2626 25.9425 29.5711C25.9425 29.8798 25.8854 30.1312 25.7711 30.3142C25.6338 30.5428 25.4167 30.6571 25.131 30.6571C24.8451 30.6571 24.628 30.5428 24.4907 30.3142C24.3765 30.1312 24.3193 29.8913 24.3193 29.5711ZM24.8909 29.5711C24.8909 29.8112 24.9023 29.9827 24.9366 30.0741C24.9594 30.1999 25.0394 30.2685 25.1538 30.2685C25.2567 30.2685 25.3253 30.1999 25.371 30.0741C25.3938 29.9713 25.4167 29.7998 25.4167 29.5597C25.4167 29.3197 25.4053 29.1483 25.371 29.0454C25.3481 28.9196 25.2681 28.851 25.1538 28.851C25.0509 28.851 24.9823 28.9196 24.9594 29.0454C24.9023 29.1597 24.8909 29.3311 24.8909 29.5711ZM26.1939 30.6228V28.5082H27.0742C27.257 28.5082 27.4171 28.5539 27.5314 28.6453C27.6457 28.7482 27.7029 28.8624 27.7029 28.9996C27.7029 29.1254 27.6571 29.2283 27.5886 29.3311C27.52 29.4111 27.4171 29.4683 27.3027 29.5026C27.44 29.5483 27.5429 29.6055 27.6343 29.6855C27.7029 29.7655 27.7486 29.8798 27.7486 30.0284C27.7486 30.1999 27.6914 30.3371 27.5657 30.4514C27.44 30.5542 27.2799 30.6114 27.0627 30.6114H26.1939V30.6228ZM26.7426 29.697V30.2228H26.937C27.0056 30.2228 27.0627 30.2114 27.1085 30.1656C27.1656 30.1198 27.2113 30.0512 27.2113 29.9484C27.2113 29.8684 27.1885 29.8112 27.1427 29.7655C27.097 29.7198 27.0285 29.697 26.9485 29.697H26.7426ZM26.7426 28.8853V29.3426H26.9142C26.9942 29.3426 27.0742 29.3197 27.1085 29.2854C27.1542 29.2397 27.177 29.1826 27.177 29.114C27.177 29.034 27.1542 28.9539 27.097 28.931C27.0513 28.9082 26.9942 28.8853 26.9256 28.8853H26.7426Z" fill="#034EA1"/>
<path d="M18.7067 31.5944V32.726H18.901V32.9547H18.1695V32.726H18.3638V31.9259L18.1695 31.9831V31.7544C18.2152 31.7544 18.2723 31.7315 18.3409 31.6972C18.4209 31.6515 18.4781 31.6287 18.5009 31.5944H18.7067ZM19.0726 32.6118L19.3583 32.566C19.3583 32.6118 19.3697 32.646 19.3811 32.6803C19.3926 32.726 19.4383 32.7375 19.484 32.7375C19.5411 32.7375 19.564 32.7146 19.5983 32.6346C19.6213 32.5775 19.6441 32.4746 19.6441 32.3603C19.5983 32.3832 19.564 32.406 19.5183 32.4175C19.4726 32.4289 19.4383 32.4403 19.3926 32.4403C19.2897 32.4403 19.2097 32.4175 19.1526 32.3374C19.084 32.2688 19.0496 32.1774 19.0496 32.0859C19.0496 31.9259 19.0954 31.8116 19.1754 31.7201C19.2554 31.6401 19.3697 31.583 19.5297 31.583C19.7012 31.583 19.827 31.6515 19.9184 31.8116C19.987 31.9374 20.0213 32.0859 20.0213 32.2688C20.0213 32.4518 19.9755 32.6118 19.907 32.7375C19.827 32.8975 19.6784 32.9776 19.5069 32.9776C19.2554 32.9662 19.1183 32.8518 19.0726 32.6118ZM19.6441 32.1659C19.6441 32.0516 19.6441 31.9716 19.6327 31.9259C19.6213 31.8459 19.5754 31.8116 19.5183 31.8116C19.4726 31.8116 19.4383 31.8345 19.404 31.8802C19.3926 31.9259 19.3811 31.9602 19.3811 32.0174C19.3811 32.0745 19.3926 32.1316 19.404 32.1545C19.4154 32.1774 19.4611 32.2116 19.5069 32.2116C19.5297 32.2116 19.5526 32.2116 19.5754 32.2002C19.5983 32.2002 19.6327 32.1774 19.6441 32.1659ZM20.3414 32.3832V32.1545H20.4099C20.4785 32.1545 20.5242 32.1431 20.5699 32.1088C20.6157 32.0859 20.6271 32.0402 20.6271 31.9716C20.6271 31.9259 20.6157 31.8916 20.6042 31.8574C20.5814 31.8345 20.5471 31.8116 20.5014 31.8116C20.4556 31.8116 20.4214 31.8231 20.3871 31.8574C20.3642 31.8802 20.3414 31.9259 20.3299 31.9716L20.0784 31.8574C20.1241 31.7544 20.1814 31.6858 20.2614 31.6401C20.3414 31.583 20.4328 31.5715 20.5357 31.5715C20.6499 31.5715 20.7643 31.5944 20.8329 31.6744C20.9129 31.743 20.9586 31.8459 20.9586 31.9602C20.9586 32.0288 20.9358 32.0974 20.8786 32.1545C20.8215 32.2002 20.7643 32.2231 20.6842 32.2574C20.7872 32.2688 20.8672 32.3031 20.9129 32.3374C20.9815 32.3946 21.0158 32.4632 21.0158 32.566C21.0158 32.6918 20.9586 32.7946 20.8443 32.8632C20.7415 32.9319 20.6271 32.9662 20.5014 32.9662C20.3985 32.9662 20.3071 32.9433 20.2271 32.8975C20.1584 32.8518 20.1013 32.7832 20.0441 32.6803L20.2842 32.5546C20.3071 32.6232 20.3414 32.6689 20.3642 32.6803C20.3871 32.6918 20.4214 32.7032 20.4671 32.7032C20.5814 32.7032 20.6385 32.646 20.6385 32.5432C20.6385 32.4746 20.6157 32.4175 20.5699 32.3832C20.5471 32.3718 20.4899 32.3603 20.4099 32.3603H20.3414V32.3832ZM21.0843 32.2688C21.0843 32.0745 21.1072 31.9145 21.1643 31.7887C21.2329 31.6515 21.3587 31.5715 21.553 31.5715C21.7245 31.5715 21.8503 31.6401 21.9417 31.7887C21.9989 31.9031 22.0446 32.0631 22.0446 32.2688C22.0446 32.4632 22.0217 32.6346 21.9303 32.7489C21.8503 32.886 21.7359 32.9433 21.5645 32.9433C21.3816 32.9433 21.2558 32.8746 21.1758 32.7489C21.1072 32.646 21.0843 32.486 21.0843 32.2688ZM21.553 31.8002C21.5073 31.8002 21.4845 31.8116 21.473 31.8574C21.4616 31.9031 21.4502 31.9602 21.4502 32.0516V32.4632C21.4502 32.566 21.4616 32.6346 21.473 32.6803C21.4845 32.726 21.5187 32.7375 21.5759 32.7375C21.6216 32.7375 21.6445 32.726 21.6559 32.6803C21.6673 32.6346 21.6787 32.5775 21.6787 32.486V32.0745C21.6787 31.9716 21.6673 31.9031 21.6559 31.8574C21.633 31.8231 21.5987 31.8002 21.553 31.8002Z" fill="#034EA1"/>
<path fill-rule="evenodd" clip-rule="evenodd" d="M11.4481 7.40661C10.1679 7.21229 8.97906 6.92651 7.79024 6.44641L9.42487 13.0192C9.69921 14.1052 9.7335 14.8481 9.7335 15.4082C9.7335 16.7914 8.76187 18.6318 7.89312 20.1407C6.54427 22.5069 5.21829 24.4272 4.98967 26.7935C4.73819 29.5712 9.35629 30.5313 11.4481 30.7257V7.40661Z" fill="#034EA1"/>
<path fill-rule="evenodd" clip-rule="evenodd" d="M28.5602 7.40661C29.8405 7.21229 31.0293 6.92651 32.2181 6.44641L30.5834 13.0192C30.3091 14.1052 30.2749 14.8481 30.2749 15.4082C30.2749 16.7914 31.2465 18.6318 32.1152 20.1407C33.4641 22.5069 34.7901 24.4272 35.0186 26.7935C35.2702 29.5712 30.6521 30.5313 28.5602 30.7257V7.40661Z" fill="#034EA1"/>
</svg>
