<svg width="52" height="54" viewBox="0 0 52 54" fill="none" xmlns="http://www.w3.org/2000/svg">
<path d="M37.956 8.03974C38.4721 6.95996 39.9907 4.33319 38.6263 2.09338C37.964 1.00614 36.5232 0.695244 35.4697 1.41718C34.4169 2.13845 33.3692 2.8672 32.2931 3.62815C31.1439 3.21394 29.9175 2.97062 28.6221 2.94252C27.0364 2.90808 25.4401 2.90808 23.853 2.94252C22.5576 2.97062 21.3312 3.21394 20.1821 3.62815C19.1059 2.8672 18.0582 2.13845 17.0055 1.41718C15.9518 0.695244 14.5112 1.00614 13.8489 2.09338C12.4845 4.33319 14.0031 6.95996 14.5191 8.03974C13.973 8.8494 13.5227 9.73579 13.1899 10.6869C11.8177 14.6107 10.7491 18.3666 9.66986 22.8424C15.2479 27.5973 19.7169 30.8914 26.2376 34.8783C32.7582 30.8914 37.2271 27.5973 42.8052 22.8424C41.726 18.3666 40.6574 14.6107 39.2852 10.6869C38.9525 9.73579 38.5021 8.8494 37.956 8.03974Z" fill="#100F0D"/>
<path d="M9.66987 22.8423C10.7491 18.3665 11.8177 14.6106 13.1899 10.6869C13.5227 9.7357 13.973 8.84931 14.5191 8.03965C14.0031 6.95987 12.4845 4.3331 13.8489 2.09329C14.4988 1.0264 15.8979 0.70785 16.9455 1.37826L16.9305 1.36781C16.0557 0.803143 15.445 0.541155 14.3589 0.811354C12.556 1.25991 10.6047 3.22234 12.2546 7.19423C12.3923 7.52575 12.5353 7.85345 12.6813 8.179C11.7435 9.42406 11.1743 10.7222 10.6568 12.3107H11.6484C11.2443 13.5389 10.8577 14.782 10.4831 16.0719H9.50523C8.93888 18.0381 8.39409 20.1104 7.84165 22.4013L7.57098 23.5242L8.44991 24.2732C11.0742 26.5102 13.4392 28.4082 15.8274 30.1766H19.0362C15.8675 27.9455 12.9617 25.6483 9.66987 22.8423Z" fill="#407FCA"/>
<path d="M17.1152 31.117C19.4022 32.7597 21.7556 34.3176 24.4195 35.9666C25.026 35.6051 25.6336 35.2475 26.2376 34.8783C24.107 33.5756 22.1962 32.3469 20.3935 31.117H17.1152Z" fill="#407FCA"/>
<path d="M40.3034 27.3558C42.2747 25.7748 43.7488 24.5093 44.9043 23.5243C44.6036 22.2772 44.3608 21.2576 43.9944 19.8333H43.9936C43.6423 19.8333 43.9312 19.8333 43.5797 19.8333C42.8771 17.1198 42.1671 14.6862 41.3857 12.3107C41.9185 12.3107 41.7734 12.3107 42.3147 12.3107C41.9372 11.1938 41.5226 9.80613 40.2972 8.17905C40.8024 7.05242 41.2492 6.02734 41.3243 4.78806H40.8292L40.8251 4.78816C40.9718 2.63057 39.7362 1.19174 38.0704 0.800392C37.0216 0.553993 36.4173 0.801331 35.541 1.37038L35.5278 1.37953C36.5756 0.707531 37.9761 1.02579 38.6263 2.09334C39.9907 4.33316 38.4721 6.95993 37.956 8.0397C38.5021 8.84937 38.9525 9.73575 39.2852 10.6869C40.6574 14.6106 41.726 18.3666 42.8052 22.8424C37.2271 27.5972 32.7582 30.8913 26.2375 34.8783C26.8398 35.2466 27.4436 35.6105 28.0484 35.9708C32.1824 33.4123 35.5699 31.0737 39.1182 28.296H37.5816C37.983 27.9883 38.3863 27.6743 38.7912 27.3558H40.3034Z" fill="#E82535"/>
<path d="M22.6877 12.6374C22.683 12.6103 22.6638 12.588 22.6376 12.5795L20.3338 11.8309C20.3086 11.8227 20.281 11.8286 20.2614 11.8464C20.2416 11.864 20.233 11.8909 20.2385 11.9167L20.7143 14.1553C20.7197 14.1809 20.7381 14.2016 20.7628 14.21C20.7875 14.2184 20.8147 14.2133 20.8346 14.1964C21.5762 13.5691 22.1427 13.1047 22.6597 12.7088C22.6816 12.692 22.6924 12.6645 22.6877 12.6374Z" fill="white"/>
<path d="M31.7105 14.2101C31.7351 14.2017 31.7536 14.1809 31.759 14.1555L32.2348 11.9167C32.2403 11.8908 32.2316 11.8639 32.2119 11.8463C32.1922 11.8286 32.1647 11.8227 32.1394 11.8308L29.8356 12.5794C29.8095 12.5879 29.7902 12.6102 29.7855 12.6374C29.7809 12.6645 29.7916 12.692 29.8136 12.7088C30.3309 13.1049 30.8972 13.5691 31.6387 14.1964C31.6585 14.2133 31.6858 14.2184 31.7105 14.2101Z" fill="white"/>
<path d="M24.7561 23.5572C24.7283 23.555 24.704 23.5374 24.6933 23.5116C24.2693 22.486 24.0194 21.7039 23.7682 20.669C23.7616 20.6417 23.7709 20.6131 23.7923 20.5949C24.5999 19.9085 25.2579 19.4236 26.197 18.8467C26.2207 18.8321 26.2507 18.8321 26.2745 18.8467C27.2134 19.4236 27.8714 19.9085 28.6791 20.5949C28.7004 20.6131 28.7097 20.6417 28.7031 20.669C28.452 21.7039 28.202 22.486 27.778 23.5116C27.7674 23.5374 27.743 23.555 27.7152 23.5572C26.6504 23.6403 25.822 23.6404 24.7561 23.5572ZM30.1323 22.5384C30.1338 21.3425 30.1372 19.6724 30.14 17.8849C30.1406 17.4325 30.0219 16.9874 29.7956 16.5956L27.4684 12.5618C27.2141 12.1214 26.7443 11.8501 26.2357 11.8501C25.7272 11.8501 25.2573 12.1214 25.003 12.5618C24.8404 12.8433 24.0469 14.2154 22.6758 16.5904C22.4492 16.9829 22.3303 17.429 22.3315 17.8821C22.3358 19.6529 22.3414 21.3403 22.3454 22.5541C22.358 26.4494 30.1274 26.4305 30.1323 22.5384Z" fill="white"/>
<path d="M14.3598 0.811558C15.4458 0.541358 16.0567 0.803346 16.9314 1.36801L16.9463 1.37847C16.9664 1.39125 16.9865 1.40376 17.0063 1.41729C18.0589 2.13857 19.1065 2.86723 20.1827 3.62817C21.3319 3.21396 22.5582 2.97064 23.8535 2.94254C25.4406 2.9081 27.0368 2.9081 28.6223 2.94254C29.9177 2.97064 31.1441 3.21396 32.2932 3.62817C33.3692 2.86723 34.4169 2.13857 35.4696 1.41729C35.4888 1.40413 35.5084 1.39209 35.5277 1.37968L35.5409 1.37053C36.4172 0.80148 37.0215 0.554143 38.0702 0.800543C38.9333 1.00326 39.6804 1.48804 40.1801 2.20764C39.1235 0.532306 36.3694 -0.638653 34.795 0.440094C33.8815 1.06599 32.9936 1.68255 32.0947 2.31497C30.9713 1.97057 29.8132 1.78344 28.6438 1.75814C27.1036 1.72473 25.4681 1.72258 23.8275 1.75814C22.658 1.78344 21.5 1.97057 20.3765 2.31497C19.4777 1.68255 18.5897 1.06599 17.6763 0.440094C16.0877 -0.64836 13.2974 0.553117 12.2622 2.25244C12.2606 2.25505 12.2593 2.25748 12.2578 2.26C12.7898 1.47413 13.588 1.00355 14.3598 0.811558Z" fill="white"/>
<path d="M29.2129 46.3083H30.3353V41.2767H29.3937L27.7743 44.1616V41.2767H26.3131L25.9515 42.3087H26.6519V46.3083H27.5934L29.2129 43.4159V46.3083Z" fill="white"/>
<path d="M9.86231 43.3708C9.86231 42.527 10.1712 42.3012 10.6005 42.3012C11.0449 42.3012 11.3387 42.527 11.3387 43.3708V44.2596C11.3387 45.1032 11.0299 45.3292 10.6005 45.3292C10.156 45.3292 9.86231 45.1032 9.86231 44.2596V43.3708ZM10.6005 46.4364C11.64 46.4364 12.4911 45.8338 12.4911 44.4253V43.205C12.4911 41.7964 11.6551 41.1939 10.6005 41.1939C9.56103 41.1939 8.70983 41.7964 8.70983 43.205V44.4253C8.70983 45.8338 9.54601 46.4364 10.6005 46.4364Z" fill="white"/>
<path d="M20.6939 44.832L19.6469 44.5006C19.5791 45.1107 19.3455 45.3292 18.9614 45.3292C18.5169 45.3292 18.2233 45.1032 18.2233 44.2596V43.3708C18.2233 42.527 18.5321 42.3012 18.9614 42.3012C19.3004 42.3012 19.5189 42.4894 19.5865 42.8811L20.6561 42.625C20.4679 41.6308 19.8579 41.1939 18.9614 41.1939C17.9219 41.1939 17.0708 41.7964 17.0708 43.205V44.4253C17.0708 45.8338 17.9069 46.4364 18.9614 46.4364C19.8955 46.4364 20.5282 45.9619 20.6939 44.832Z" fill="white"/>
<path d="M5.87017 42.3087H6.45015C6.82675 42.3087 7.01509 42.4894 7.01509 42.9113V43.2578C7.01509 43.7323 6.68366 43.898 6.32209 43.898H5.87017V42.3087ZM4.71779 46.3083H5.87017V44.8923H6.36736C7.33149 44.8923 8.16758 44.4327 8.16758 43.2803V42.8811C8.16758 41.9095 7.69307 41.2767 6.52556 41.2767H4.3788L4.01723 42.3087H4.71779V46.3083Z" fill="white"/>
<path d="M14.9994 42.3012C15.3384 42.3012 15.5569 42.4894 15.6245 42.8811L16.6941 42.625C16.5059 41.6308 15.8958 41.1939 14.9994 41.1939C13.9599 41.1939 13.1088 41.7964 13.1088 43.205V44.4253C13.1088 45.8338 13.9449 46.4364 14.9994 46.4364C15.9335 46.4364 16.5662 45.9619 16.7318 44.832L15.6849 44.5006C15.6171 45.1107 15.3835 45.3292 14.9994 45.3292C14.555 45.3292 14.2613 45.1032 14.2613 44.2596V43.3708C14.2613 42.527 14.5701 42.3012 14.9994 42.3012Z" fill="white"/>
<path d="M28.5802 41.1187C29.2808 41.1187 29.9887 40.7721 30.1846 39.8306L29.2431 39.5594C29.1376 40.0113 28.9268 40.2147 28.5802 40.2147C28.2338 40.2147 28.0228 40.0113 27.9174 39.5594L26.9758 39.8306C27.1717 40.7721 27.8798 41.1187 28.5802 41.1187Z" fill="white"/>
<path d="M44.8953 43.1373V42.851C44.8953 42.4368 45.1589 42.3087 45.5732 42.3087H46.0402V43.7549H45.6485C45.3246 43.7549 44.8953 43.6795 44.8953 43.1373ZM46.0402 44.7417V46.3083H47.1852V42.3087H47.5241L47.8856 41.2767H45.4076C44.4434 41.2767 43.7429 41.7664 43.7429 42.8134V43.1221C43.7429 43.9733 44.2174 44.3274 44.5412 44.4931L43.675 46.3083H44.8877L45.6183 44.7417H46.0402Z" fill="white"/>
<path d="M32.949 45.3292C32.5046 45.3292 32.2108 45.1032 32.2108 44.2596V43.3708C32.2108 42.527 32.5196 42.3012 32.949 42.3012C33.288 42.3012 33.5064 42.4894 33.5742 42.8811L34.6437 42.625C34.4555 41.6308 33.8453 41.1939 32.949 41.1939C31.9096 41.1939 31.0583 41.7964 31.0583 43.205V44.4253C31.0583 45.8338 31.8944 46.4364 32.949 46.4364C33.883 46.4364 34.5157 45.9619 34.6814 44.832L33.6344 44.5006C33.5666 45.1107 33.3331 45.3292 32.949 45.3292Z" fill="white"/>
<path d="M35.0956 41.2767V46.3083H36.2406V44.2746H36.5947L37.5286 46.3083H38.8242L37.5512 43.6119L38.7263 41.2767H37.4383L36.5721 43.2879H36.2406V41.2767H35.0956Z" fill="white"/>
<path d="M25.364 46.3083V41.2767H24.4224L22.8029 44.1616V41.2767H21.3417L20.9801 42.3087H21.6806V46.3083H22.6222L24.2415 43.4159V46.3083H25.364Z" fill="white"/>
<path d="M41.1818 43.0695L41.6488 44.4855H40.7676L41.1818 43.0695ZM40.4964 45.4271H41.9577L42.2514 46.3083H43.3889L41.566 41.2767H40.2252L39.8637 42.3087H40.4662L39.118 46.3083H40.2478L40.4964 45.4271Z" fill="white"/>
<path d="M0.751953 49.9239H1.45242V53.9236H2.6049V49.9239H3.91549V53.9236H5.06797V48.892H1.11353L0.751953 49.9239Z" fill="white"/>
<path d="M8.65337 50.8729C8.65337 51.3475 8.32194 51.5133 7.96037 51.5133H7.50845V49.9239H8.08842C8.46502 49.9239 8.65337 50.1047 8.65337 50.5264V50.8729ZM8.16384 48.892H6.01708L5.6555 49.9239H6.35597V53.9236H7.50845V52.5074H8.00554C8.96968 52.5074 9.80575 52.048 9.80575 50.8956V50.4963C9.80575 49.5247 9.33125 48.892 8.16384 48.892Z" fill="white"/>
<path d="M11.5458 51.8899H13.0297L13.3987 50.8654H11.5458V49.9239H13.4214L13.7904 48.892H10.3933V53.9236H13.5343L13.9035 52.8766H11.5458V51.8899Z" fill="white"/>
<path d="M16.6904 51.2194L15.3722 48.892H14.4985V53.9236H15.5982V51.1817L16.3213 52.4246H17.0294L17.7524 51.1817V53.9236H18.8522V48.892H17.9784L16.6904 51.2194Z" fill="white"/>
<path d="M22.1439 52.161C22.1439 52.7109 21.9103 52.8916 21.5789 52.8916H21.014V51.3249H21.4509C21.8123 51.3249 22.1439 51.468 22.1439 51.9425V52.161ZM21.496 50.3306H21.014V48.892H19.8616V53.9236H21.6542C22.8216 53.9236 23.2962 53.238 23.2962 52.2137V51.9199C23.2962 50.7674 22.4602 50.3306 21.496 50.3306Z" fill="white"/>
<path d="M25.1116 51.8899H26.5954L26.9645 50.8654H25.1116V49.9239H26.9871L27.3562 48.892H23.9591V53.9236H27.1001L27.4692 52.8766H25.1116V51.8899Z" fill="white"/>
<path d="M30.6102 50.8729C30.6102 51.3475 30.2788 51.5133 29.9172 51.5133H29.4652V49.9239H30.0453C30.4219 49.9239 30.6102 50.1047 30.6102 50.5264V50.8729ZM30.1206 48.892H27.9738L27.6124 49.9239H28.3127V53.9236H29.4652V52.5074H29.9624C30.9265 52.5074 31.7626 52.048 31.7626 50.8956V50.4963C31.7626 49.5247 31.288 48.892 30.1206 48.892Z" fill="white"/>
<path d="M32.1317 51.9351H34.2483L34.6551 50.7675H32.5385L32.1317 51.9351Z" fill="white"/>
<path d="M35.0933 49.9239H35.7938V51.4078C35.7938 52.2138 35.741 52.8916 35.1459 52.8916H34.8296L35.1912 53.9236H35.6507C36.5771 53.9236 36.886 52.9067 36.886 51.3776V49.9239H37.8049V53.9236H38.9573V48.892H35.4548L35.0933 49.9239Z" fill="white"/>
<path d="M41.3676 51.7768V48.892H39.9064L39.5448 49.9239H40.2454V53.9236H41.1869L42.8064 51.0312V53.9236H43.9287V48.892H42.9872L41.3676 51.7768Z" fill="white"/>
<path d="M48.1995 48.892H45.0812V53.9236H46.2336V49.9239H47.8229L48.1995 48.892Z" fill="white"/>
<path d="M49.2767 52.1008L49.6909 50.6847L50.158 52.1008H49.2767ZM50.0751 48.892H48.7343L48.3728 49.9239H48.9753L47.6271 53.9236H48.7569L49.0055 53.0422H50.4668L50.7608 53.9236H51.8976L50.0751 48.892Z" fill="white"/>
</svg>
