<svg width="150" height="151" viewBox="0 0 150 151" fill="none" xmlns="http://www.w3.org/2000/svg">
<path d="M74.9807 41.9159L0 85.2316L74.9807 128.547L150 85.2316L74.9807 41.9159Z" fill="#C8102E"/>
<path d="M72.1543 29.1963L66.5396 28.6234L64.2094 23.4286L61.9174 28.6234L56.2642 29.1963L60.4659 32.9778L59.3203 38.5546L64.2094 35.6898L69.1367 38.5546L67.9526 32.9778L72.1543 29.1963Z" fill="#C5B783"/>
<path d="M115.279 29.1963L109.664 28.6234L107.334 23.4286L105.042 28.6234L99.3887 29.1963L103.629 32.9778L102.444 38.5546L107.334 35.6898L112.261 38.5546L111.077 32.9778L115.279 29.1963Z" fill="#C5B783"/>
<path d="M93.7358 29.1963L88.0826 28.6234L85.7906 23.4286L83.4608 28.6234L77.8457 29.1963L82.0474 32.9778L80.8633 38.5546L85.7906 35.6898L90.6797 38.5546L89.496 32.9778L93.7358 29.1963Z" fill="#C5B783"/>
<path d="M50.6113 29.1963L44.958 28.6234L42.6662 23.4286L40.3361 28.6234L34.7212 29.1963L38.9229 32.9778L37.7387 38.5546L42.6662 35.6898L47.5556 38.5546L46.3714 32.9778L50.6113 29.1963Z" fill="#C5B783"/>
<path d="M94.0415 96.2321C89.3812 102.458 81.8563 105.629 75.0193 105.629C63.216 105.629 51.4132 98.5623 51.4132 84.8111C51.4132 74.6129 60.3515 64.9871 75.0193 64.9871C79.7173 64.9871 84.3009 66.4769 86.8603 67.5843L90.909 65.2546V74.4217L87.7771 76.217C84.9502 72.2064 80.2903 69.6089 75.0193 69.6089C66.3866 69.6089 59.3585 76.5989 59.3585 85.2697C59.3585 93.902 66.3485 100.892 75.0193 100.931C80.7103 100.931 86.0962 98.486 89.8779 93.8639L94.0415 96.2321ZM140.642 85.2316L75.0193 123.123L9.39648 85.2316L75.0193 47.3399L140.642 85.2316ZM74.9808 117.699L131.207 85.2316L112.452 74.4217L84.3391 90.6556V93.902C81.7801 96.6526 78.1513 98.1423 74.4463 97.9893L76.4705 96.5377L72.9566 92.6416L67.8382 93.7494L68.6786 96.3851C64.5913 94.0931 62.1468 89.7389 62.1849 85.1553L64.0183 87.2176L67.5326 83.3214L65.9281 78.3179L63.6746 79.3109C65.3936 76.0259 68.4875 73.6194 72.1543 72.7794L74.9808 74.4217L77.8076 72.7794C81.8563 73.6961 85.1032 76.4844 86.7073 80.1131L93.7359 76.064V63.5737L74.9808 52.7639L18.7548 85.2316L37.5096 96.0414L48.9686 89.4333C50.1909 95.6591 53.8963 101.121 60.0459 104.712L56.2642 106.889L74.9808 117.699Z" fill="white"/>
<path d="M84.376 79.8363V76.5714L89.128 78.707C89.128 78.707 89.6106 79.0627 90.3756 82.3747C90.7326 85.6031 90.523 87.0843 90.523 87.0843L87.2264 88.985C87.2264 88.985 88.4675 86.417 87.2118 81.4336C85.09 80.1907 84.376 79.8363 84.376 79.8363Z" fill="#C8102E"/>
<path d="M71.5479 83.6656L75.69 79.0987L81.2584 81.5403L80.64 87.7224L74.619 88.9786L71.5479 83.6656Z" fill="#C8102E"/>
</svg>
