<svg width="21" height="17" viewBox="0 0 21 17" fill="none" xmlns="http://www.w3.org/2000/svg">
<path d="M5.16191 9.90872L0.420092 8.39273C0.420092 8.39273 -0.146488 8.16647 0.036333 7.65575C0.0742149 7.5507 0.149978 7.46019 0.375622 7.30504C1.42643 6.58583 19.8272 0.0968217 19.8272 0.0968217C19.8272 0.0968217 20.3477 -0.0744947 20.654 0.0386387C20.794 0.0903568 20.8846 0.150156 20.9587 0.365109C20.9867 0.442687 21.0015 0.610771 20.9999 0.775622C20.9982 0.89522 20.9834 1.00512 20.9719 1.17967C20.8599 2.95425 17.5065 16.1973 17.5065 16.1973C17.5065 16.1973 17.3056 16.9715 16.5875 16.9989C16.3256 17.0086 16.0077 16.9569 15.6272 16.6353C14.2157 15.4442 9.34044 12.228 8.26328 11.5217C8.20234 11.4813 8.18587 11.4296 8.17434 11.3795C8.15952 11.3051 8.24187 11.213 8.24187 11.213C8.24187 11.213 16.7324 3.8076 16.958 3.03021C16.9762 2.97041 16.9103 2.9397 16.8213 2.96556C16.2581 3.1692 6.48119 9.22669 5.40238 9.89579C5.33979 9.93458 5.16191 9.90872 5.16191 9.90872Z" fill="#6C7FC2"/>
</svg>
