<svg width="22" height="15" viewBox="0 0 22 15" fill="none" xmlns="http://www.w3.org/2000/svg">
<path d="M21.07 1.45C20.46 0.39 19.82 0.2 18.5 0.13C17.18 0.03 13.87 0 11 0C8.13 0 4.81 0.04 3.5 0.12C2.18 0.2 1.53 0.4 0.93 1.45C0.32 2.5 0 4.3 0 7.5C0 10.68 0.32 12.5 0.93 13.55C1.53 14.6 2.18 14.79 3.5 14.88C4.81 14.95 8.13 15 11 15C13.87 15 17.18 14.96 18.5 14.88C19.82 14.79 20.47 14.6 21.07 13.55C21.69 12.51 22 10.68 22 7.51V7.5C22 4.3 21.69 2.5 21.07 1.45ZM8.25 11.59V3.41L15.13 7.5L8.25 11.6V11.59Z" fill="#6C7FC2"/>
</svg>
