<svg width="40" height="40" viewBox="0 0 40 40" fill="none" xmlns="http://www.w3.org/2000/svg">
<path d="M8.4 15.668C9.29334 15.668 10.04 16.0144 10.04 17.0669C10.04 18.3327 8.94666 19.6384 7.32 20.6243C7.69334 21.0506 7.94666 21.5303 8.08 22.0632C8.46666 21.8634 8.88 21.6635 9.30666 21.4504C9.77334 19.1587 11.4133 17.4001 12.8666 17.4001C13.6 17.4001 13.9334 17.8397 13.9334 18.4259C13.9334 19.7983 12.6666 20.8641 10.8933 21.7968C10.84 22.1165 10.84 22.2897 10.84 22.4896C10.84 23.1157 10.9733 23.4089 11.2133 23.4089C11.3733 23.4089 11.56 23.2623 11.7734 23.0225L14.1734 20.1847L14.96 17.4666H16.36L15.6534 19.8781L16.7466 19.5984L17.3734 17.4666H18.68L17.6134 21.104L19.36 18.7857L19.7466 17.48H21L20.2534 20.0514C20.2266 20.1447 20.0666 20.6909 20.1866 20.6909C20.3334 20.6909 20.6534 20.0914 21.0266 19.4252C21.4266 18.6924 21.7866 17.9064 21.9466 17.48H23.2266L22.6 19.665L24.2266 17.48H35.4666L8.38666 29.0313L8.92 27.206L30.2134 18.5059H26.0666L25.6534 19.8649L24.32 20.2912L24.8534 18.5192H24.2L22.36 20.9041L21.2 21.2905C21.2666 20.7176 21.36 20.1313 21.4934 19.5717L20.96 20.5709C20.5334 21.3571 20.1734 21.9699 19.5334 21.9699C19.0666 21.9699 18.8534 21.5303 18.8534 20.9573C18.8534 20.7576 18.88 20.5311 18.9334 20.3178L17.2 22.6228L15.76 23.0891L16.48 20.5843L15.3866 20.8641L14.64 23.4888L13.08 24.0084L13.7866 21.5969L12.2134 23.6088C11.5466 24.4615 10.8533 24.9277 10.3067 24.9277C9.24 24.9277 9.10666 23.1824 9.2 22.4762C8.62666 22.7427 8.42666 22.836 8.22666 22.9426C8.48 26.6864 4.66666 31.8426 2.25334 31.8426C1.50666 31.8426 0.92 31.2697 0.92 29.9506C0.92 28.0187 2.37334 25.1943 6.28 22.9825C6.17334 22.2231 5.90666 21.5835 5.44 21.1706V21.0906C6.76 20.078 7.76 18.9322 7.76 17.9064C7.76 17.44 7.4 17.2535 7.01334 17.2535C6.28 17.2535 5.30666 18.1595 4.78666 18.9189H4.52L4.94666 17.4533C5.93334 16.1344 7.52 15.668 8.4 15.668ZM11.0667 20.7842C12.0534 20.1447 12.4666 19.332 12.4666 18.6924C12.4666 18.4792 12.3866 18.3327 12.2534 18.3327C11.8934 18.3327 11.36 19.4651 11.0667 20.7842ZM6.30666 23.9418C3.94666 25.5407 2.74666 27.8722 2.74666 29.5109C2.74666 29.8041 2.84 30.297 3.18666 30.297C4.53334 30.297 6.22666 26.7264 6.30666 23.9418ZM8.4 14.7487C7.44 14.7487 5.48 15.2017 4.2 16.9071L4.09334 17.0403L4.04 17.2002L3.61334 18.6658L3.26666 19.8383H4.49334H4.76H5.24L5.52 19.4385C5.92 18.8523 6.42666 18.4393 6.74666 18.2528C6.53334 18.8257 5.85334 19.5717 4.85334 20.3445L4.49334 20.6243V21.0772V21.1572V21.5836L4.81334 21.8634C5 22.0233 5.13334 22.2764 5.21334 22.5296C3.57334 23.5421 2.28 24.7279 1.36 26.0469C0.493334 27.3259 0 28.7115 0 29.9506C0 32.0291 1.21334 32.7619 2.25334 32.7619C3.02666 32.7619 4.29334 32.4021 5.86666 30.7234C6.52 30.0172 7.13334 29.1912 7.64 28.3119L7.50666 28.7781L6.96 30.6434L8.74666 29.884L35.8534 18.306L40 16.534H35.4934H24.48H23.2534H22.2534H21.0266H19.9334H18.7066H17.6H16.3734H14.9734H14.28L14.1734 16.8804C13.84 16.6139 13.4 16.4674 12.88 16.4674C12.2266 16.4674 11.56 16.7072 10.96 17.1202C10.96 17.0936 10.96 17.0803 10.96 17.0537C10.96 15.6413 9.97334 14.7487 8.4 14.7487Z" fill="white"/>
<path d="M33.2 26.6597V26.0202V25.394V24.4747H32.28H30.6H29.7734L29.76 24.5813C29.4934 24.4747 29.1867 24.4081 28.8667 24.4081C28.3867 24.4081 27.96 24.5413 27.6267 24.7812C27.28 24.5413 26.8534 24.4081 26.36 24.4081C26.16 24.4081 25.9734 24.4347 25.8 24.4747H24.88H23.8134H23.2534L23 24.9677L22.64 25.6605L21.9467 27.0061H23.2V28.4317V29.3511H23.96H24.12H24.8934H25.6534H25.7067H25.8134H26.56H27.0534H27.6267H29.9867H30.5867C30.7867 29.4044 31 29.4311 31.2134 29.4311C32.48 29.4311 33.3867 28.5916 33.3867 27.4192C33.3734 27.1528 33.3067 26.8996 33.2 26.6597Z" fill="white"/>
<path d="M14.9733 17.4534H16.3733L15.6666 19.865L16.76 19.5852L17.3866 17.4534H18.6933L17.6266 21.0907L19.3734 18.7724L19.76 17.4668H21.0134L20.2666 20.0381C20.24 20.1314 20.08 20.6776 20.2 20.6776C20.3466 20.6776 20.6666 20.0781 21.04 19.4119C21.44 18.6791 21.8 17.8931 21.96 17.4668H23.24L22.6133 19.6518L24.24 17.4668H35.48L8.38665 29.0314L8.91998 27.2061L30.2134 18.506H26.0666L25.6534 19.865L24.32 20.2912L24.8533 18.5192H24.2L22.36 20.9042L21.2 21.2906C21.2666 20.7176 21.36 20.1314 21.4934 19.5718L20.96 20.5711C20.5333 21.3572 20.1734 21.97 19.5333 21.97C19.0666 21.97 18.8533 21.5303 18.8533 20.9574C18.8533 20.7576 18.88 20.5311 18.9334 20.318L17.2 22.6229L15.76 23.0892L16.48 20.5844L15.3866 20.8642L14.64 23.4888L13.08 24.0085L13.7866 21.597L12.2133 23.6088C11.5466 24.4615 10.8533 24.9278 10.3067 24.9278C9.23999 24.9278 9.10665 23.1824 9.19998 22.4763C8.62665 22.7428 8.42665 22.836 8.22665 22.9427C8.47998 26.6866 4.66665 31.8427 2.25331 31.8427C1.50665 31.8427 0.919983 31.2698 0.919983 29.9507C0.919983 28.0188 2.37331 25.1943 6.27998 22.9826C6.17332 22.2231 5.90665 21.5837 5.43998 21.1707V21.0907C6.75998 20.0781 7.75998 18.9323 7.75998 17.9064C7.75998 17.44 7.39998 17.2535 7.01331 17.2535C6.27998 17.2535 5.30665 18.1596 4.78665 18.919H4.51999L4.94665 17.4534C5.94665 16.1344 7.53331 15.6548 8.41331 15.6548C9.30665 15.6548 10.0533 16.0012 10.0533 17.0538C10.0533 18.3195 8.95998 19.6251 7.33332 20.611C7.70665 21.0374 7.95998 21.5171 8.09332 22.05C8.47998 21.8501 8.89332 21.6502 9.31998 21.4371C9.78665 19.1455 11.4267 17.3868 12.88 17.3868C13.6133 17.3868 13.9466 17.8264 13.9466 18.4127C13.9466 19.785 12.68 20.8509 10.9067 21.7835C10.8533 22.1032 10.8533 22.2765 10.8533 22.4763C10.8533 23.1026 10.9867 23.3956 11.2267 23.3956C11.3867 23.3956 11.5733 23.2491 11.7866 23.0093L14.1866 20.1714L14.9733 17.4534ZM2.74665 29.511C2.74665 29.8042 2.83998 30.2972 3.18665 30.2972C4.53331 30.2972 6.22665 26.7264 6.30665 23.9552C3.94665 25.554 2.74665 27.8723 2.74665 29.511ZM12.4666 18.6925C12.4666 18.4794 12.3866 18.3327 12.2534 18.3327C11.8933 18.3327 11.36 19.4652 11.0667 20.7843C12.0533 20.1447 12.4666 19.332 12.4666 18.6925Z" fill="#00AFEF"/>
<path d="M31.1066 26.4733L31.16 26.007H32.28V25.3809H30.6L30.4134 27.0996C30.6134 27.0196 30.84 27.0062 31 27.0062C31.4266 27.0062 31.68 27.2061 31.68 27.4593C31.68 27.6591 31.4934 27.859 31.1466 27.859C30.88 27.859 30.6 27.7524 30.36 27.5659L30.2666 28.2453C30.4934 28.3919 30.8266 28.5252 31.1866 28.5252C31.9866 28.5252 32.44 28.0455 32.44 27.4326C32.4534 26.7132 31.76 26.3402 31.1066 26.4733Z" fill="#00AFEF"/>
<path d="M30 26.3002C30 25.7805 29.5867 25.3142 28.8667 25.3142C28.1734 25.3142 27.72 25.7405 27.72 26.4467V26.46H28.4667V26.4334C28.4667 26.1136 28.6267 25.9404 28.88 25.9404C29.1067 25.9404 29.24 26.087 29.24 26.3134C29.24 26.46 29.16 26.6066 29 26.8064L27.6134 28.4452H29.9734V27.7924H29.0267L29.5867 27.1795C29.8534 26.8731 30 26.6332 30 26.3002Z" fill="#00AFEF"/>
<path d="M23.44 26.0868H24.1066V28.4451H24.8666V25.394H23.8L23.44 26.0868Z" fill="#00AFEF"/>
<path d="M26.3466 25.3274C25.6133 25.3274 25.16 25.8204 25.16 26.46C25.16 27.0329 25.6 27.4325 26.1066 27.4325C26.2266 27.4325 26.28 27.4325 26.3866 27.4059L25.68 28.4585H26.5333L26.96 27.8056C27.2933 27.2993 27.5066 26.8996 27.5066 26.4466C27.52 25.7804 27.0933 25.3274 26.3466 25.3274ZM26.3466 26.8862C26.08 26.8862 25.88 26.6997 25.88 26.4066C25.88 26.1534 26.0666 25.927 26.3466 25.927C26.64 25.927 26.8266 26.1402 26.8266 26.4066C26.8133 26.6997 26.6266 26.8862 26.3466 26.8862Z" fill="#00AFEF"/>
<path d="M20 7.31433L20.9866 10.3387H24.1733L21.5866 12.2173L22.5733 15.2418L20 13.3765L17.4266 15.2418L18.4 12.2173L15.8266 10.3387H19.0133L20 7.31433Z" fill="#D2A85A"/>
</svg>
